<svg width="213.109451" height="334.805542" xmlns="http://www.w3.org/2000/svg">

 <g>
  <title>background</title>
  <rect fill="none" id="canvas_background" height="602" width="802" y="-1" x="-1"/>
 </g>
 <g>
  <title>Layer 1</title>
  <path id="svg_1" d="m96.61417,334.69317c-8.10944,0.88199 -14.02483,-3.59369 -19.97936,-7.59433c-5.31331,-3.56977 -9.19164,-8.3342 -11.029,-14.80414c-2.35006,-8.2753 3.868,-19.6506 12.14642,-21.36298c1.21212,-0.25076 2.41485,-0.59112 3.58365,-0.99957c5.30778,-1.85464 6.41021,-5.37729 2.57412,-9.34805c-4.14649,-4.29209 -1.29403,-9.13272 -0.6273,-13.17221c1.05904,-6.41651 3.8849,-12.66104 6.6947,-18.63431c2.66344,-5.66209 2.10027,-11.17799 0.81043,-16.79018c-0.55758,-2.42607 -2.43111,-2.96353 -4.36799,-1.07762c-6.01162,5.85343 -14.14081,7.67842 -21.34692,11.24863c-1.22014,0.60452 -2.80175,0.43106 -4.16402,0.80678c-3.13201,0.86386 -6.81896,1.08 -9.22788,2.92991c-5.81989,4.46945 -12.27577,4.07709 -18.87368,4.08261c-5.78277,0.00486 -11.71024,-1.57049 -16.92937,3.14652c-2.07723,1.87741 -5.84448,2.29117 -7.34639,-1.99005c-0.38672,-1.10236 -0.98959,-3.05243 -1.49092,-3.0517c-6.8526,0.00989 -4.38551,-6.71727 -6.94541,-9.77742c-0.56672,-0.67749 1.55486,-3.4339 2.16485,-5.32153c0.45648,-1.41257 1.12985,-3.34874 0.53569,-4.37151c-0.95058,-1.63628 -2.95799,-2.95352 -0.86926,-4.73666c1.55119,-1.32425 3.67201,-2.74684 5.54227,-2.75113c2.7622,-0.00636 4.74787,1.24121 6.04984,-3.00446c1.42107,-4.63401 10.14501,-4.7378 13.10126,0.09122c1.78638,2.91804 3.2901,6.03265 5.28977,8.79152c3.62878,5.00652 2.13656,10.37633 1.74059,15.75336c-0.07493,1.01739 0.96868,2.99571 1.62177,3.05116c6.0075,0.50998 11.89648,0.34118 16.64511,-4.35204c2.06274,-2.03866 4.13803,-3.0598 7.63408,-1.81851c2.2358,0.79383 5.77106,-0.92982 8.29384,-2.31041c6.43137,-3.51955 14.32491,-4.73291 18.76456,-11.54278c0.28907,-0.44339 1.79352,-0.73818 1.93783,-0.53568c2.1839,3.06433 5.36432,5.98235 6.09566,9.40769c1.86731,8.74583 -1.80653,16.77786 -4.73314,24.89053c-1.89251,5.24612 -2.82806,10.85129 -4.00708,16.33542c-0.61665,2.86828 0.65268,4.39285 3.76925,4.06827c12.94398,-1.34836 25.8962,-2.62015 38.83277,-4.03556c4.40992,-0.48248 8.91301,-0.85299 13.14254,-2.07452c6.65385,-1.92169 13.05108,-4.72055 19.68051,-6.74317c3.03146,-0.92489 2.94542,-2.80856 2.27612,-4.83792c-1.59135,-4.82513 -3.49058,-9.54825 -5.23302,-14.3244c-0.31817,-0.87213 -0.7193,-1.81033 -0.68109,-2.70084c0.29979,-6.98539 -4.11809,-12.29368 -6.32185,-18.39109c-2.75698,-7.62807 2.49455,-13.52217 10.20041,-11.91643c0.63882,0.13312 1.52095,0.29007 1.96714,-0.0235c6.2,-4.35701 11.50939,1.1787 17.2562,1.66267c4.53342,0.38178 4.94693,0.44845 4.17239,-4.31277c-0.28643,-1.76079 -0.04081,-4.23501 1.02446,-5.46024c2.32567,-2.67486 2.10739,-4.92657 0.59354,-7.7574c-0.57843,-1.0816 -0.22313,-2.66255 -0.29335,-4.01593c0.92242,0.87226 1.82268,1.76943 2.7711,2.61242c4.0042,3.55894 0.70131,6.96975 -0.1983,10.42443c-1.93323,7.42403 2.21239,11.70441 8.3288,10.84977c1.19139,-0.16649 3.17909,-0.67884 3.28206,-1.2881c0.19377,-1.14657 -0.60589,-2.53686 -1.20437,-3.71853c-0.51933,-1.0254 -1.33139,-1.90254 -2.01408,-2.8452c1.3465,-0.37002 2.68155,-0.79319 4.04454,-1.08661c0.63702,-0.13712 1.3349,-0.08489 1.9933,-0.0117c1.86069,0.20688 3.71524,0.46895 5.57221,0.70931c-1.52327,0.78293 -3.1758,1.39662 -4.51557,2.41983c-0.67508,0.51555 -1.20131,1.83439 -1.07808,2.68634c0.70481,4.87292 -2.51912,7.91586 -7.33804,6.74022c-0.75597,-0.18442 -1.66774,-0.16802 -2.24059,-0.59913c-7.9091,-5.9522 -18.31953,-0.77496 -26.3768,-5.9683c-2.75805,2.64802 -6.22959,0.70526 -9.11657,1.41748c-5.10958,1.26059 -5.46987,7.59006 -2.14379,11.96768c3.20421,4.21725 4.03249,8.68173 4.93428,13.54218c0.80928,4.36178 2.67086,8.5296 4.09088,12.77539c0.19414,0.5805 0.59081,1.09478 0.7736,1.67739c2.75143,8.771 2.7467,8.77253 12.02044,9.61991c4.50527,0.41165 12.27683,8.56347 12.99568,13.57052c1.74906,12.1829 -1.37361,23.18924 -8.01899,33.34379c-0.49724,0.75979 -1.06406,1.79534 -1.80698,2.02322c-7.1075,2.18027 -14.00656,5.96075 -21.85248,2.93573c-2.16081,-0.83307 -4.49765,-1.19733 -6.71994,-1.88574c-5.42239,-1.67963 -10.38226,-9.31339 -9.5155,-14.75998c0.0419,-0.26331 1.83786,-0.70133 2.10889,-0.40668c4.47364,4.86395 8.85093,4.54581 13.54435,0.25299c0.8627,-0.78906 2.92205,-1.26135 3.88962,-0.78476c6.74344,3.3215 13.57416,1.30795 20.37825,0.67313c0.87756,-0.08188 2.01456,-0.44498 2.49522,-1.08222c1.00496,-1.33233 1.65204,-2.93463 2.4461,-4.42605c-1.56885,-0.06714 -3.32137,-0.62537 -4.67566,-0.11887c-6.91636,2.58692 -13.64928,2.51157 -20.61582,0.02472c-1.79228,-0.63977 -4.43263,0.05524 -6.32348,0.92209c-6.42882,2.94726 -9.35619,2.32846 -13.35787,-3.35504c-0.51732,-0.73474 -1.29088,-1.289 -1.94574,-1.92688c-0.40568,0.89389 -0.96646,1.7511 -1.18821,2.6885c-0.68519,2.8964 -1.33382,5.80774 -1.82686,8.74186c-0.8824,5.25106 -3.97924,8.79233 -8.38367,11.45388c-2.80946,1.69773 -5.65837,3.36652 -8.28357,5.3245c-4.21896,3.14667 -7.57933,3.62851 -10.89363,-0.50452c-4.77731,-5.95749 -10.6299,-8.4827 -17.92254,-9.99054c-5.36432,-1.10919 -7.51078,-6.88016 -9.49455,-11.73364c-1.87728,-4.59293 -4.95814,-5.37164 -8.63906,-1.88336c-5.73078,5.43088 -6.77812,14.41003 -2.39737,21.01135c4.82511,7.27081 12.32596,11.88205 20.11002,13.36749c5.85683,1.11771 12.62048,-2.56921 18.99427,-4.05832c1.12148,-0.26199 2.31104,-0.2326 3.46916,-0.33779c-0.54437,1.15814 -0.82484,3.04748 -1.67631,3.35479c-5.22931,1.88739 -10.58768,3.41705 -16.15309,5.3158m-79.75,-111.25c0.50843,2.44008 -0.89771,2.83279 -2.78734,2.47766c-1.67811,-0.3154 -3.30235,-1.03334 -4.98417,-1.17647c-1.34523,-0.11447 -2.74124,0.36768 -4.11471,0.58502c0.74882,1.15802 1.22918,2.83455 2.29253,3.3851c4.83851,2.50516 4.31886,4.01941 -0.62286,5.27658c-0.70365,0.17902 -1.32049,0.93641 -1.84024,1.54363c-0.71619,0.83672 -1.30171,1.78526 -1.94321,2.68591c1.02314,0.24086 2.04317,0.49599 3.07013,0.7193c1.64898,0.35855 4.47815,0.02722 1.58008,2.90668c-0.37506,0.37267 -0.38688,1.11093 -0.56696,1.67984c0.56891,0.04225 1.14162,0.14787 1.70598,0.11412c1.35561,-0.08104 2.70732,-0.22748 4.06061,-0.34753c-0.60669,1.37345 -1.58622,2.71638 -1.70207,4.13008c-0.09263,1.13031 0.71541,2.45721 1.451,3.45578c0.21307,0.28927 2.13985,-0.03879 2.29016,-0.44791c1.54136,-4.19543 5.17122,-4.00961 8.6169,-4.56265c1.77343,-0.28461 4.00024,-0.87793 5.02483,-2.14089c3.99602,-4.92566 3.22851,-11.23271 -1.1063,-15.98275c-1.5224,-1.66823 -2.94137,-3.91776 -3.26077,-6.07189c-0.3866,-2.60739 -0.93995,-3.77457 -3.78601,-3.80243c-3.57702,-0.03502 -3.47156,2.15761 -3.37758,5.57282m170,59c2.62217,-4.22144 -0.71752,-3.40406 -2.96212,-3.49878c-8.13817,-0.34342 -16.53749,2.52524 -24.3416,-1.98865c-0.49113,-0.28409 -1.08663,-0.38769 -1.6336,-0.57525c0.47125,-0.47126 0.90375,-1.29185 1.42093,-1.34919c1.64348,-0.18237 3.32284,-0.16143 4.98057,-0.07327c5.52878,0.29413 11.05208,0.7002 16.58283,0.93961c0.9711,0.04205 1.968,-0.5123 2.95299,-0.79123c-0.7381,-0.72107 -1.38158,-1.58756 -2.22971,-2.1395c-5.26907,-3.42914 -11.16312,-4.17911 -16.90648,-2.2059c-5.35745,1.84064 -10.32016,4.8251 -15.46959,7.27887c-2.32788,1.10922 -4.62803,2.66037 -3.19957,5.41772c1.41144,2.72443 4.04901,3.4155 7.07846,1.76123c3.87235,-2.11459 7.45386,-1.84009 10.97144,1.24958c1.00398,0.88189 3.28935,0.65222 4.909,0.40991c2.92376,-0.43741 5.78861,-1.2685 8.67808,-1.93515c2.88945,-0.66669 5.77892,-1.33335 9.16837,-2.5m-37.5,13.5c1.9161,-0.5828 3.86305,-1.08182 5.73924,-1.77295c1.7233,-0.6348 4.24014,-2.57932 4.91136,-2.04996c4.72791,3.72885 9.78822,2.64658 14.91286,1.8215c4.09582,-0.65948 8.2231,-1.18786 12.25442,-2.12646c0.75875,-0.17664 1.52108,-2.00928 1.52788,-3.08255c0.00372,-0.5914 -1.65356,-1.80475 -2.40431,-1.69159c-5.42201,0.81726 -10.91184,1.52557 -16.16042,3.03342c-3.53891,1.01666 -6.44102,1.25967 -9.10669,-1.46985c-2.35667,-2.41312 -4.50355,-2.34058 -7.25738,-0.30017c-1.26442,0.93686 -3.5403,0.53347 -5.36186,0.68554c-1.443,0.12046 -2.89266,0.16117 -4.33936,0.23734c0.55829,1.36877 0.89522,2.90015 1.74384,4.05572c0.69859,0.95124 2.00396,1.45688 3.54042,2.66001m7.5,11.5c-1.62038,0.5 -3.23092,1.03558 -4.8647,1.48712c-1.02707,0.28378 -2.08901,0.4415 -3.1353,0.65576c0.86435,1.11905 1.54264,2.90506 2.63418,3.2095c1.90183,0.53043 4.06259,0.06254 6.10727,0.1644c5.11281,0.25464 9.79695,-4.19909 15.23624,-1.06994c4.4618,2.56677 7.92064,0.29898 10.71696,-3.21683c0.54723,-0.68802 0.55321,-1.80655 0.80884,-2.72653c-0.91995,-0.08237 -1.84073,-0.2435 -2.75974,-0.2341c-5.33911,0.05465 -10.7987,0.85693 -15.97264,-0.02707c-3.2547,-0.55606 -5.70318,-0.51068 -8.77111,1.75769m-36,-15c0.33332,-1.5152 0.74257,-3.01917 0.96981,-4.55011c0.12435,-0.83762 -0.05896,-1.72089 -0.10353,-2.58359c-0.62208,0.49011 -1.40698,0.86697 -1.83955,1.48889c-2.5808,3.7103 -5.22578,7.39002 -7.54565,11.2619c-1.15914,1.93461 -1.77959,4.22495 -2.40577,6.42218c-0.15281,0.53629 0.51775,1.46259 1.04845,1.94928c0.17274,0.15842 1.35365,-0.35406 1.64986,-0.82571c2.62953,-4.18698 5.16391,-8.43375 8.22638,-13.16284m-25,-1c-0.70223,2.03555 -1.44004,4.06 -2.08256,6.11422c-0.16811,0.53748 -0.25199,1.53809 -0.00494,1.67933c0.54605,0.31204 1.57419,0.52877 1.96564,0.22232c1.1554,-0.90454 2.34906,-1.93585 3.0731,-3.18177c1.93468,-3.32907 3.68905,-6.7687 5.35627,-10.24072c0.22822,-0.47528 -0.35601,-1.94412 -0.72014,-2.00397c-2.6666,-0.43853 -4.71955,0.32425 -5.63728,3.23508c-0.36232,1.14923 -1.28342,2.12225 -1.95009,4.17551m11,6c0.20184,-1.46481 0.4037,-2.92966 0.60554,-4.39447c-0.93754,0.86719 -1.96141,1.65985 -2.79071,2.62048c-1.02779,1.19052 -1.93675,2.49149 -2.82136,3.79602c-1.59516,2.35248 -2.7081,5.31729 -6.52573,4.52591c-0.41898,-0.08688 -0.97517,0.4881 -1.46774,0.7561c0.36194,0.39866 0.66056,0.89292 1.09568,1.181c3.82573,2.53296 7.37152,1.25486 8.93828,-3.04168c0.62683,-1.71897 1.63269,-3.29972 2.96604,-5.44336m20.5,11.5c1.75145,-1.75144 3.83749,-3.28577 5.15605,-5.31809c1.21112,-1.86673 1.6315,-4.25885 2.30507,-6.44876c0.10124,-0.32916 -0.31707,-0.81811 -0.49504,-1.23315c-0.4887,0.26947 -1.13602,0.42007 -1.44101,0.82715c-2.44628,3.26498 -4.9122,6.52368 -7.13161,9.94052c-0.30663,0.47201 0.70512,1.80041 1.60654,2.23233m-34.5,-18.5c0.9384,-0.93842 2.24636,-1.72708 2.70538,-2.85977c0.41209,-1.01691 -0.10895,-2.41199 -0.21834,-3.64023c-0.91748,0.58847 -2.06027,0.99509 -2.70978,1.7998c-1.87789,2.32672 -3.80805,4.68097 -5.19387,7.30145c-0.57138,1.08045 0.19422,2.86796 0.35172,4.33387c1.02163,-0.69327 2.35763,-1.17887 2.98673,-2.13135c0.81948,-1.24078 1.07815,-2.85199 2.07816,-4.80377m71,24c1.63688,3.23007 4.29426,2.97629 7.01507,1.86212c0.42444,-0.1738 0.37424,-1.50665 0.5435,-2.3035c-2.18803,-0.01953 -4.37608,-0.03915 -6.56411,-0.05844c-0.16481,-0.00146 -0.32964,-0.00018 -0.99446,0.49982m-47,-2c1.3979,-1.39789 2.85148,-2.74723 4.14807,-4.23349c0.26912,-0.3085 -0.04421,-1.12509 -0.08914,-1.70755c-1.61202,0.90603 -3.48046,1.56106 -4.72214,2.82962c-0.57515,0.58761 0.07083,2.37045 0.66321,3.11142m13.5,-22.5c-1.16668,0.81039 -2.49895,1.47464 -3.41184,2.509c-0.32782,0.37143 0.35486,1.63474 0.57636,2.491c0.77849,-0.98465 1.57156,-1.95825 2.32921,-2.95868c0.36952,-0.48792 0.67294,-1.02597 0.50627,-2.04132m-16.49999,-5.49997c-0.64584,0.35415 -1.29167,0.70831 -1.93751,1.06247c0.45832,0.45834 0.91665,0.91668 1.37498,1.375c0.35417,-0.64585 0.70834,-1.29166 0.56253,-2.43747z" fill="#000000" class="selected"/>
  <path id="svg_2" d="m62.61417,50.19317c5.05943,4.7261 9.51143,9.6889 14.7713,13.55163c6.18445,4.54171 14.16093,3.56514 21.31769,5.09211c6.97792,1.48882 14.11612,2.44844 21.2333,2.98164c4.47627,0.33535 9.11489,-0.14897 13.55506,-0.95637c9.54794,-1.73622 19.01628,-3.9115 28.51156,-5.93353c0.74504,-0.15865 1.80805,-0.3197 2.09645,-0.83231c0.71781,-1.27584 1.07354,-2.75541 1.57465,-4.15317c0.77391,1.21058 1.54782,2.42116 2.32173,3.63174c0.62274,-0.4674 1.80219,-0.96574 1.7782,-1.39718c-0.15961,-2.87014 0.4492,-6.612 -1.10826,-8.4152c-4.15613,-4.81192 -3.41014,-10.95971 -5.70951,-16.21751c-5.55464,-12.70145 -14.43595,-22.04226 -27.05306,-27.53601c-12.8781,-5.60738 -26.62159,-7.17071 -40.44848,-5.88244c-7.86662,0.73294 -15.59319,3.18809 -23.30233,5.17937c-1.30539,0.33718 -2.06599,2.43116 -3.31955,3.40197c-2.00029,1.54913 -4.2012,2.8396 -6.32046,4.23461c-2.99394,1.97078 -5.55173,4.77798 -9.34191,0.34939c-0.9771,-1.14169 -5.85256,0.17553 -8.41917,1.42627c-10.16104,4.95157 -15.60502,14.14193 -19.79166,24.02832c-2.57904,6.09019 -4.56292,12.49228 -6.15711,18.91733c-0.96293,3.88086 -1.13622,8.10765 -0.84603,12.11982c0.71853,9.93455 1.97458,19.82914 2.85371,29.75404c0.18637,2.10399 -0.31322,4.26873 -0.49677,6.40548c-0.81645,-2.14184 -2.03289,-4.22247 -2.37182,-6.43738c-0.89557,-5.85256 -1.53845,-11.75243 -2.04148,-17.65397c-0.4982,-5.84502 -0.60367,-11.72281 -1.06159,-17.57213c-0.54964,-7.02099 1.05705,-13.5791 4.04737,-19.82445c4.29811,-8.97671 6.77366,-19.0242 14.82088,-25.84301c6.03132,-5.11062 12.27174,-9.75039 20.89582,-8.6779c4.28567,0.53296 7.48624,-1.53636 10.88374,-3.94593c6.91525,-4.90446 14.89167,-7.76343 23.22316,-8.96476c18.06147,-2.60431 35.63983,-0.29507 52.12876,7.56829c8.94509,4.26581 16.05484,11.07162 21.01142,19.84478c6.04934,10.70742 10.48088,21.92776 11.05177,34.41663c0.13261,2.90115 -0.8595,3.64187 -3.7928,4.24456c-8.5132,1.74916 -16.76869,5.14878 -25.33089,6.16007c-10.03518,1.18527 -20.30412,0.96182 -30.43911,0.54948c-7.94269,-0.32317 -15.81676,-2.35017 -23.75892,-2.66156c-4.03823,-0.15835 -8.1651,1.77479 -12.23767,2.81801c-0.73221,0.18757 -1.36559,0.82727 -2.09535,0.94578c-2.32711,0.37792 -4.67689,0.62204 -7.02525,0.83823c-0.07885,0.00726 -0.44285,-1.16908 -0.32666,-1.24224c1.96808,-1.23938 3.94906,-2.47413 6.01951,-3.52862c1.08545,-0.55283 2.53647,-0.51263 3.45323,-1.21923c0.45725,-0.3524 0.36616,-2.49335 0.04561,-2.62039c-8.11348,-3.21521 -12.70594,-10.53273 -18.83109,-16.03758c-0.77524,-0.69674 -1.53852,-1.79473 -1.63766,-2.77457c-0.20253,-2.00182 0.05072,-4.04975 0.11624,-6.07869c0.93448,1.57628 1.80374,3.19647 2.82564,4.71387c0.71836,1.06668 1.64445,1.99346 2.72779,3.23271z" fill="#000000" class="selected"/>
  <path id="svg_3" d="m162.11417,111.19317c4.5019,-8.26354 3.34103,-16.26357 0.93309,-24.59577c-1.0815,-3.74229 -0.27123,-8.06092 -0.0795,-12.10666c0.02606,-0.54985 1.45266,-1.03334 2.23079,-1.54757c0.22186,0.87521 0.87237,1.92363 0.5995,2.59891c-2.81488,6.96543 0.73462,13.45923 1.25459,20.16934c0.31461,4.05991 0.42496,8.27041 -0.28643,12.24996c-2.19127,12.25802 -8.67641,22.58915 -17.05173,31.30051c-7.16397,7.45143 -16.17154,12.82738 -25.94783,16.73874c-7.72846,3.09203 -15.71477,2.96115 -23.7666,2.98281c-2.60672,0.007 -5.86438,-0.6353 -2.79338,4.19543c1.52229,2.39456 0.66413,6.39729 0.61303,9.66824c-0.04368,2.79699 0.17441,5.04711 3.38924,6.15407c3.92595,1.35181 7.51607,5.76341 11.76739,0.43112c1.15163,-1.44444 2.86742,-2.59848 4.55432,-3.40417c1.25179,-0.59787 2.87548,-0.41705 4.33352,-0.5831c-0.82482,1.15752 -1.45905,2.54123 -2.51178,3.42827c-2.6742,2.25326 -5.89139,3.95715 -8.22429,6.49421c-2.42586,2.63817 -4.25551,1.23505 -6.25989,0.03357c-2.28703,-1.37091 -4.31906,-3.22029 -6.70309,-4.35511c-1.29973,-0.61869 -3.10169,-0.14411 -4.67184,-0.24509c-1.23969,-0.07973 -2.70318,0.09134 -3.66576,-0.50122c-3.87935,-2.38817 -7.6855,-3.29573 -11.97725,-0.99344c-0.66282,0.35556 -2.30389,-0.32576 -2.98647,-1.023c-0.6368,-0.65046 -0.59975,-1.9606 -0.85932,-2.98037c0.9783,0.21344 1.951,0.46017 2.93728,0.62613c0.48597,0.08177 1.12585,0.21243 1.47726,-0.01587c4.49745,-2.9218 8.28926,-1.13275 12.35021,1.2885c3.24682,1.93582 3.62515,-1.89577 3.92015,-3.33606c0.58938,-2.87766 0.37201,-5.97695 0.13009,-8.95566c-0.39544,-4.86913 -4.36634,-5.90584 -8.12523,-6.95305c-10.90664,-3.03856 -22.10418,-5.28835 -32.65457,-9.26262c-7.32335,-2.75867 -9.71667,-10.35701 -11.15885,-17.72472c-0.12562,-0.6417 -0.01662,-1.32934 -0.01666,-1.99565c-0.0004,-6.51443 -0.22129,-6.68734 -6.42721,-5.03067c-6.77045,1.80735 -10.61448,-0.20321 -12.73209,-6.6593c-1.07519,-3.27802 2.13796,-11.27419 5.70856,-12.23866c10.37712,-2.803 13.01238,-11.70767 16.38696,-19.95879c2.97168,-7.26603 5.35002,-14.77329 8.12801,-22.12199c0.31936,-0.84481 1.52229,-1.35561 2.31555,-2.02127c0.20674,0.89034 0.73625,1.84796 0.567,2.65993c-0.98066,4.70474 -0.9459,9.4197 -3.74296,13.97103c-4.74156,7.71537 -8.00362,16.32603 -12.35196,24.30736c-1.0202,1.87258 -3.74148,3.43862 -5.94766,3.92018c-5.14021,1.12201 -7.26485,4.95982 -8.7744,9.05423c-1.17328,3.18231 5.88353,7.19608 10.36348,6.0873c8.29977,-2.05423 8.59517,-1.25871 9.69206,7.0099c1.10437,8.32486 4.09921,16.00285 13.41711,19.16486c12.81051,4.34721 25.62252,8.80015 39.31656,8.73994c13.06218,-0.05743 25.72855,-2.00369 36.86684,-9.87088c12.43561,-8.78349 22.17503,-19.46139 26.46416,-34.79385z" fill="#000000" class="selected"/>
  <path id="svg_4" d="m205.11417,187.69317c2.81868,4.15202 5.75154,7.8788 7.75894,12.05089c0.70485,1.46488 -0.26984,4.61694 -1.56493,5.90748c-1.19484,1.19065 -3.83923,1.08208 -5.86217,1.17473c-0.49308,0.02258 -1.05278,-1.40865 -1.58184,-2.17143c0.69287,-0.23722 1.37112,-0.60933 2.08136,-0.68633c2.12628,-0.2305 5.66644,0.62554 4.63228,-2.89109c-0.53765,-1.82822 -3.98844,-2.88535 -6.24274,-4.06188c-0.5513,-0.28775 -1.57192,0.32373 -2.37677,0.52178c0.28993,-1.01937 0.5002,-2.07047 0.89038,-3.04989c0.4667,-1.17155 1.08717,-2.28187 1.64104,-3.41871c-1.70444,-0.04186 -3.42543,-0.24562 -5.10796,-0.07337c-1.30286,0.1334 -2.55754,0.73711 -3.83366,1.13176c0.48561,-1.27492 0.95094,-2.5581 1.46603,-3.821c0.23224,-0.56942 0.56363,-1.09842 0.85004,-1.64575c-0.69103,-0.23906 -1.53655,-0.8587 -2.0465,-0.6517c-2.27935,0.92528 -5.4214,1.50888 -6.48784,3.27879c-2.45111,4.06793 -5.63063,3.97394 -9.36712,3.25575c-1.08118,-0.2078 -2.20082,-0.68463 -3.24237,-0.55445c-7.41927,0.9272 -13.92403,-1.8203 -20.77732,-4.10961c-5.25329,-1.7548 -11.31579,-1.0885 -17.01867,-1.49502c-1.46959,-0.10475 -2.94027,-0.19454 -4.41043,-0.2912c0.5084,-1.2749 0.98678,-2.56282 1.53195,-3.82181c0.9171,-2.11798 1.8101,-4.25142 2.85519,-6.30614c0.35513,-0.69822 1.13872,-1.17851 1.72652,-1.75839c0.35373,0.804 1.1114,1.67925 0.98454,2.39847c-0.36328,2.05937 -2.58273,5.04788 1.37621,5.20532c8.10953,0.32248 9.1486,1.15962 8.93763,-4.85333c-0.06474,-1.84587 0.60282,-3.71788 0.93857,-5.57729c1.04947,-5.8117 -0.04416,-11.32527 -1.81532,-16.89039c-0.95232,-2.99224 -0.87862,-6.32363 -1.14089,-9.51242c-0.0538,-0.65407 0.45777,-1.35463 0.70871,-2.03377c0.54361,0.6279 1.40438,1.17814 1.58017,1.8961c1.299,5.30501 3.10978,10.59726 3.49353,15.98373c0.42518,5.9681 -0.45542,12.03437 -0.8442,18.05292c-0.16738,2.59091 0.11984,4.59802 3.06292,5.69969c4.57959,1.71424 8.89267,3.96077 14.096,3.4694c2.63731,-0.24906 5.36697,0.70809 8.06946,0.85929c2.91154,0.16289 5.56146,0.24247 8.0081,-2.48426c5.26127,-5.86354 5.54501,-5.5936 11.70099,-1.14536c1.45565,1.05183 3.37442,1.46275 5.33017,2.41849z" fill="#000000" class="selected"/>
  <path id="svg_5" d="m142.11417,30.69317c4.89546,1.89546 9.56385,3.48095 14.16503,5.24211c0.81987,0.31381 1.36084,1.35625 2.03061,2.06223c-0.92161,0.04216 -1.84298,0.09267 -2.76507,0.11755c-0.13979,0.00377 -0.28189,-0.16181 -0.42441,-0.1643c-1.89679,-0.03314 -3.79382,-0.05116 -5.69081,-0.07294c0.91765,1.62789 1.78583,3.28615 2.76297,4.8775c2.20345,3.58837 4.60764,7.06445 6.60214,10.7631c0.56085,1.04007 -0.01674,2.69403 -0.07214,4.06643c-0.706,-0.80044 -1.53005,-1.5253 -2.09876,-2.41362c-3.61787,-5.65109 -6.82925,-11.60903 -10.91529,-16.89306c-1.88996,-2.44409 -5.34681,-3.79817 -8.27256,-5.29626c-7.95602,-4.07375 -16.63885,-4.25684 -25.31082,-5.49821c-10.97752,-1.57141 -21.8134,-0.98574 -32.69376,-1.60973c-0.88446,-0.05072 -1.71274,-1.0808 -2.56713,-1.65579c0.83791,-0.42501 1.67252,-1.21193 2.51425,-1.21963c9.54477,-0.0873 19.1169,-0.50148 28.62945,0.05876c11.60761,0.68363 23.33795,1.43389 34.1063,7.63586z" fill="#000000" class="selected"/>
  <path id="svg_6" d="m39.86417,205.189479c2.63804,0.526922 4.7761,1.053844 6.91415,1.580765c-2.0857,0.96348 -4.15976,1.960405 -6.26218,2.875932c-1.00615,0.438146 -2.10677,0.616536 -3.09504,1.092889c-7.10446,3.424371 -12.74384,1.438581 -16.43509,-6.728847c-1.71357,-3.791492 -2.81005,-8.284607 -2.98496,-12.5216c-0.42207,-10.224646 -0.39703,-20.496375 -0.06337,-30.729192c0.33056,-10.137726 1.208,-20.256125 1.99537,-30.368398c0.09315,-1.196375 1.13121,-2.300799 1.73126,-3.447857c0.39995,1.152445 1.18004,2.320417 1.14302,3.455033c-0.58581,17.951872 -1.45386,35.894846 -1.82659,53.851043c-0.10147,4.887779 0.6556,10.027086 2.0709,14.648301c1.02869,3.35889 3.56798,6.300628 5.89419,8.916815c0.84036,0.94507 3.13294,0.861425 4.56326,0.426699c2.04773,-0.622349 3.9123,-1.99774 6.35508,-3.051584z" fill="#000000" class="selected"/>
  <path id="svg_7" d="m173.86417,108.459298c-3.45826,-10.187744 -4.33255,-20.264388 -3.95563,-30.547184c0.02466,-0.672434 0.68626,-1.313361 1.05159,-1.968944c0.30134,0.729871 0.77292,1.428352 0.8777,2.194479c1.04344,7.629143 1.87355,15.303216 3.11661,22.886651c0.38826,2.368661 1.84273,4.502485 2.81311,6.741488c6.0856,14.041753 12.05861,28.025628 11.20994,44.538955c-0.35032,6.8166 0.65534,13.716708 0.82642,20.586146c0.05342,2.146134 -0.39948,4.398642 -1.00491,6.449435c-0.48824,1.653759 -1.55491,3.07721 -2.36495,4.602844c-0.13898,-1.801161 -0.80838,-3.826045 -0.32684,-5.365463c2.3199,-7.416673 0.93704,-14.599219 -0.13902,-21.982575c-0.96683,-6.633755 -0.03208,-13.820481 -1.76189,-20.083203c-2.61495,-9.467396 -6.81543,-18.344194 -10.34213,-28.052628z" fill="#000000" class="selected"/>
  <path id="svg_8" d="m120.11417,169.69317c-0.44825,-3.05176 -1.83574,-6.94773 -0.5306,-8.36624c1.48593,-1.61502 6.08486,-0.08087 8.06938,-1.58249c3.91719,-2.96401 4.82033,0.36857 6.55086,2.15193c0.29637,0.30542 -0.26526,1.3485 -0.24708,2.04605c0.01744,0.67015 0.05468,1.65932 0.46722,1.93619c1.00194,0.67244 2.22696,1.01248 3.36209,1.48643c-1.06148,0.52605 -2.25577,0.88958 -3.14999,1.62029c-1.05905,0.86537 -2.45548,1.93901 -2.66844,3.11087c-0.90966,5.00554 -1.34646,10.09543 -2.17223,15.11897c-0.18695,1.13716 -1.00473,2.45261 -1.93567,3.13732c-4.33702,3.18989 -5.15497,6.38353 -2.90925,11.24334c0.89861,1.94463 1.38206,4.10257 1.8585,6.2078c0.1441,0.63664 -0.36969,1.42219 -0.58214,2.13954c-0.78755,-0.50394 -2.09193,-0.86428 -2.27836,-1.53523c-1.16686,-4.19953 -2.06411,-8.47326 -3.0933,-12.71207c-0.47534,-1.9577 -1.40785,-3.88497 -1.4458,-5.83939c-0.0245,-1.26109 0.94502,-3.40074 1.90279,-3.6849c7.23395,-2.14641 6.13777,-8.6205 7.55296,-13.79402c0.32692,-1.19515 0.82385,-2.36919 0.96111,-3.58471c0.1945,-1.72279 0.65385,-4.73683 0.07435,-4.97839c-1.74487,-0.72731 -4.02441,-0.71582 -5.89856,-0.23116c-0.5095,0.13176 -0.36583,2.95189 -0.44419,4.54203c-0.07714,1.56465 -0.05559,3.13415 -0.07735,4.70153c-1.03877,-0.96122 -2.07755,-1.92245 -3.3663,-3.13369z" fill="#000000" class="selected"/>
  <path id="svg_9" d="m133.61417,127.69317c-8.58445,2.25 -16.82961,4.94881 -25.28162,6.02876c-6.75386,0.86299 -14.08324,1.51424 -20.36314,-2.3728c-2.15588,-1.33441 -3.57592,-4.00327 -4.99467,-6.27339c-0.32631,-0.52213 0.73648,-1.9124 1.16001,-2.90316c0.57648,0.44127 1.45501,0.76313 1.68376,1.34185c3.06484,7.75358 10.36734,7.70663 16.28298,7.12922c9.91458,-0.96772 19.63684,-3.86441 29.45497,-5.87652c6.31282,-1.29373 8.67894,-6.01355 10.33065,-11.47119c0.34977,-1.15562 0.99177,-2.22278 1.49912,-3.3307c0.49265,1.29532 1.43906,2.60348 1.40283,3.88383c-0.20454,7.22952 -3.80726,11.5796 -11.17489,13.8441z" fill="#000000" class="selected"/>
  <path id="svg_10" d="m93.61417,41.19317c-3.49877,-1.25 -6.76572,-2.19672 -9.98128,-3.29403c-0.65939,-0.22502 -1.12643,-1.0137 -1.68213,-1.54257c0.63734,-0.47113 1.25922,-1.31596 1.91494,-1.34311c1.94176,-0.08039 4.04794,-0.27259 5.82361,0.3447c19.49641,6.77765 38.94506,13.69284 58.3956,20.60185c1.44484,0.51322 2.87064,1.15681 4.17946,1.94797c0.80881,0.4889 1.37931,1.37204 2.05678,2.0782c-1.13713,0.16754 -2.41809,0.76338 -3.3894,0.43716c-11.24768,-3.77753 -22.42302,-7.7705 -33.67066,-11.54824c-7.75607,-2.60503 -15.59501,-4.96336 -23.64692,-7.68193z" fill="#000000" class="selected"/>
  <path id="svg_11" d="m39.11417,182.166194c-3.81931,-9.786543 -7.92288,-19.098611 -7.25796,-29.993489c0.05986,-0.980869 -0.24487,-2.11144 0.07484,-2.920267c0.36286,-0.91793 1.23818,-1.551873 1.89071,-2.309269c0.34748,0.887407 0.97769,1.764679 1.00066,2.663725c0.45863,17.946978 6.51788,32.956983 17.23311,45.355961c2.30494,2.667087 5.46636,4.285594 8.18483,6.471529c0.58509,0.470473 0.96088,1.305786 1.43307,1.973046c-0.65202,0.516707 -1.34263,1.521445 -1.9485,1.454302c-1.528,-0.169331 -3.38789,-0.299402 -4.46181,-1.366428c-6.13474,-6.095217 -12.41177,-12.109451 -16.14895,-21.32911z" fill="#000000" class="selected"/>
  <path id="svg_12" d="m167.86417,133.553449c-0.66669,-2.900371 -1.41782,-5.246038 -1.9365,-7.648928c-0.11938,-0.553029 0.55901,-1.302364 0.87027,-1.961351c0.40703,0.589025 0.88214,1.1379 1.2107,1.773203c3.84024,7.425531 6.77508,15.223899 7.82077,23.67442c0.83867,6.777756 1.7794,13.591347 1.89231,20.403828c0.07723,4.658882 -0.98243,9.395574 -1.99314,13.982091c-0.27869,1.264595 -2.20481,2.115265 -3.375,3.155866c0.14224,-1.212155 0.17967,-2.450877 0.44247,-3.632472c3.78755,-17.029489 1.48711,-33.354352 -4.93188,-49.746657z" fill="#000000" class="selected"/>
  <path id="svg_13" d="m37.61417,217.19317c4.93175,1.48015 8.91345,0.59224 12.55906,-2.88185c1.70316,-1.62302 4.26683,-3.03804 6.55137,-3.23043c8.02214,-0.67553 12.92748,-5.49994 17.11276,-11.60128c0.54599,-0.79596 1.16944,-1.53879 1.75704,-2.30622c0.37702,1.13617 1.29674,2.41426 1.04276,3.38541c-1.61981,6.19379 -12.45731,14.14952 -19.14946,14.42299c-1.3742,0.05615 -3.25957,0.14636 -4.00376,1.00537c-4.2634,4.92129 -9.57306,5.99779 -15.63873,4.9631c-0.32325,-0.05514 -0.66575,0.01456 -0.99649,-0.01065c-1.98729,-0.1515 -3.97377,-0.31375 -5.96051,-0.47241c2.15865,-1.17468 4.3173,-2.34936 6.72596,-3.27403z" fill="#000000" class="selected"/>
  <path id="svg_14" d="m55.11417,168.69317c-2.13372,-3.1337 -4.2485,-5.90206 -5.77671,-8.96324c-0.5402,-1.08207 0.35148,-2.87896 0.58944,-4.34949c0.82417,0.866 1.7224,1.67354 2.45995,2.60792c3.56032,4.51038 6.82742,9.29339 10.77442,13.43024c1.07183,1.12337 4.50381,1.08977 6.23885,0.27703c4.90054,-2.29555 9.45952,-5.31264 14.2101,-7.9424c0.91988,-0.50922 2.08927,-0.69352 3.15998,-0.75896c0.68234,-0.0417 1.39493,0.41154 2.09397,0.64285c-0.61424,0.54958 -1.14524,1.26404 -1.85582,1.62278c-5.91943,2.98831 -12.26338,5.33616 -17.69266,9.03257c-4.47324,3.04549 -7.06666,1.28524 -10.05686,-1.47235c-1.34561,-1.24094 -2.59927,-2.58156 -4.14466,-4.12695z" fill="#000000" class="selected"/>
  <path id="svg_15" d="m33.61417,57.69317c1.58333,-4.17129 2.82087,-8.13014 4.33091,-11.98215c0.30169,-0.76964 1.64326,-1.13163 2.50535,-1.68159c0.04428,0.89822 0.33411,1.86847 0.09499,2.68355c-2.51183,8.56207 -5.09716,17.1027 -7.69756,25.63848c-0.27394,0.89919 -0.7741,1.72946 -1.16929,2.59171c-0.6048,-1.34497 -1.91729,-2.82706 -1.68801,-4.01043c0.84921,-4.3832 2.20694,-8.66788 3.62361,-13.23957z" fill="#000000" class="selected"/>
  <path id="svg_16" d="m100.11417,198.69317c2.27691,3.1916 3.27302,6.32455 1.66842,9.76219c-0.30012,0.64296 -1.17901,1.06943 -1.87855,1.42146c-0.12226,0.06154 -1.07451,-0.92328 -0.98265,-1.12719c2.47656,-5.4975 -1.99753,-8.63065 -4.25675,-12.44906c-1.80153,-3.04487 -0.91283,-4.94512 2.21219,-5.76737c1.34345,-0.35351 2.92104,0.18281 4.39224,0.31487c-0.19235,1.25576 -0.35417,2.51717 -0.58554,3.76569c-0.23774,1.28302 -0.54342,2.55347 -0.56936,4.07941z" fill="#000000" class="selected"/>
  <path id="svg_17" d="m79.86417,190.94317c1.58017,0.58648 2.66034,1.17299 3.74051,1.75949c-2.17363,0.98672 -4.81624,3.27954 -6.42774,2.70087c-3.91407,-1.40548 -8.59228,-2.80567 -9.39421,-8.08458c-0.20737,-1.36506 -0.04147,-2.80986 0.13089,-4.1959c0.05357,-0.43077 0.69318,-0.78865 1.06451,-1.17988c0.29534,0.46722 0.74904,0.89924 0.86189,1.40703c1.33135,5.99079 3.26121,7.54806 10.02415,7.59297z" fill="#000000" class="selected"/>
  <path id="svg_18" d="m105.11417,101.19317c3.51397,-3.5924 1.75744,-5.57384 -1.54947,-7.29747c-0.72756,-0.37922 -1.14194,-1.35929 -1.70053,-2.06268c0.79902,-0.29662 1.95454,-1.08657 2.33863,-0.809c2.31847,1.67547 5.50452,3.22721 6.32405,5.55222c0.63178,1.79228 -1.39711,4.96404 -2.96902,6.94684c-1.18277,1.49193 -2.73886,0.27884 -2.44366,-2.32991z" fill="#000000" class="selected"/>
  <path id="svg_19" d="m66.86417,99.94317c0.70018,2.20017 1.40811,3.89721 2.09668,5.60207c0.27243,0.67453 0.50181,1.36645 0.7508,2.05044c-0.8989,-0.00058 -1.97398,0.32255 -2.66772,-0.05499c-4.08715,-2.2244 -4.31541,-13.4529 -0.3674,-15.86543c0.34181,-0.20887 1.08718,-0.21192 1.34466,0.02122c0.26767,0.24237 0.29706,0.91225 0.21146,1.35258c-0.41582,2.13922 -0.90517,4.26413 -1.36848,6.89411z" fill="#000000" class="selected"/>
  <path id="svg_20" d="m83.86417,90.94317c2.56636,0.03011 5.37059,-0.48762 4.85956,2.78876c-0.28873,1.85121 -1.99415,3.48146 -3.06144,5.21124c-1.5047,-1.07199 -3.77586,-1.87442 -4.27702,-3.29936c-0.41779,-1.18795 1.24024,-3.10597 2.4789,-4.70064z" fill="#000000" class="selected"/>
  <path id="svg_21" d="m122.86417,91.94317c0.29148,-5.07548 2.55568,-7.30158 5.04394,-5.35633c1.72534,1.34881 4.21079,2.92473 1.93382,5.70002c-2.18052,2.65775 -4.59951,2.38789 -6.97776,-0.34369z" fill="#000000" class="selected"/>
  <path id="svg_22" d="m142.61417,95.69317c-0.57824,-3.42176 -0.93094,-7.09183 -1.18595,-10.76866c-0.01935,-0.27901 0.65471,-0.6061 1.00644,-0.91085c0.4765,0.7975 1.38942,1.61588 1.35242,2.38879c-0.14461,3.02138 -0.58957,6.02838 -1.17291,9.29072z" fill="#000000" class="selected"/>
 </g>
</svg>